<?xml version="1.0" encoding="UTF-8"?>
<svg width="128px" height="128px" viewBox="0 0 128 128" version="1.1" xmlns="http://www.w3.org/2000/svg" xmlns:xlink="http://www.w3.org/1999/xlink">
    <title>Icon@3x</title>
    <defs>
        <linearGradient x1="50%" y1="0%" x2="50%" y2="100%" id="linearGradient-1">
            <stop stop-color="#ABD8FF" offset="0%"></stop>
            <stop stop-color="#4CA7E3" stop-opacity="0.9" offset="100%"></stop>
        </linearGradient>
        <path d="M116.492851,40.461545 C116.486608,39.4114214 116.474502,38.3615527 116.445959,37.3119388 C116.384284,35.0242469 116.24934,32.7169312 115.842468,30.4547247 C115.429862,28.1598969 114.756032,26.0240976 113.694189,23.9390142 C112.650313,21.8896102 111.286725,20.0142712 109.659747,18.3884337 C108.033151,16.7625961 106.157309,15.3998948 104.107148,14.3566522 C102.019906,13.2945505 99.8818215,12.6209729 97.5844538,12.2084926 C95.3220009,11.8022562 93.0140568,11.6675661 90.7263735,11.6057642 C89.675999,11.577348 88.6256245,11.5653699 87.5749952,11.5588711 C86.3277471,11.5512255 85.0804991,11.5518627 83.833251,11.5518627 L69.3515135,11.5 L58.520283,11.5 L44.2947997,11.5518627 C43.0451306,11.5518627 41.7954614,11.5512255 40.5457923,11.5588711 C39.4929967,11.5653699 38.4407108,11.577348 37.3882975,11.6057642 C35.0952622,11.6675661 32.7820937,11.8023836 30.5142889,12.2091297 C28.2138629,12.6214826 26.0725924,13.2948054 23.9825472,14.3561425 C21.9280539,15.3995125 20.0481345,16.7623413 18.4180981,18.3884337 C16.7883164,20.0141438 15.4221797,21.8891005 14.3763925,23.9381222 C13.3116189,26.024225 12.6365146,28.1612986 12.2228891,30.4574006 C11.8156348,32.7187152 11.6806904,35.0252663 11.6186338,37.3119388 C11.5903452,38.3616801 11.5781123,39.4115489 11.571741,40.461545 C11.5640954,41.7082881 11.5,43.256905 11.5,44.5035206 L11.5,58.5319283 L11.5,69.4791578 L11.5647325,83.8056166 C11.5647325,85.0538888 11.5642228,86.3021609 11.571741,87.5504331 C11.5781123,88.6019584 11.5903452,89.6532288 11.6187613,90.7043718 C11.6806904,92.9949946 11.8158897,95.3056233 12.2235262,97.5708881 C12.6370244,99.8687741 13.3120012,102.007632 14.3758828,104.095391 C15.4217974,106.147726 16.788189,108.025486 18.4180981,109.653617 C20.0480071,111.281748 21.9274167,112.646234 23.9815278,113.691005 C26.0728472,114.754509 28.2151372,115.428978 30.5169648,115.841968 C32.7837502,116.248842 35.0961542,116.383787 37.3882975,116.445589 C38.4407108,116.474005 39.4931241,116.48611 40.5459197,116.492482 C41.7955889,116.5 43.0451306,116.5 44.2947997,116.5 L58.6488561,116.5 L69.5069735,116.5 L83.833251,116.5 C85.0804991,116.5 86.3277471,116.5 87.5749952,116.492482 C88.6256245,116.48611 89.675999,116.474005 90.7263735,116.445589 C93.0149488,116.383659 95.3236575,116.248587 97.5871298,115.841459 C99.8830958,115.428469 102.020161,114.754254 104.106256,113.691388 C106.156799,112.646743 108.033023,111.282003 109.659747,109.653617 C111.28647,108.025741 112.649931,106.148236 113.693807,104.096283 C114.756287,102.007504 115.430117,99.8676273 115.842978,97.5682121 C116.249467,95.3038393 116.384284,92.9941026 116.446086,90.7043718 C116.474502,89.6531014 116.486608,88.6018309 116.492851,87.5504331 C116.5,86.3021609 116.5,85.0538888 116.5,83.8056166 C116.5,83.8056166 116.5,69.7320999 116.5,69.4791578 L116.5,58.5204599 C116.5,58.3336523 116.5,44.2012644 116.5,44.2012644 C116.5,42.9547763 116.5,41.7081606 116.492851,40.461545 Z" id="path-2"></path>
        <filter x="-4.8%" y="-3.8%" width="109.5%" height="109.5%" filterUnits="objectBoundingBox" id="filter-3">
            <feOffset dx="0" dy="1" in="SourceAlpha" result="shadowOffsetOuter1"></feOffset>
            <feGaussianBlur stdDeviation="0.5" in="shadowOffsetOuter1" result="shadowBlurOuter1"></feGaussianBlur>
            <feComposite in="shadowBlurOuter1" in2="SourceAlpha" operator="out" result="shadowBlurOuter1"></feComposite>
            <feColorMatrix values="0 0 0 0 0   0 0 0 0 0   0 0 0 0 0  0 0 0 0.20189576 0" type="matrix" in="shadowBlurOuter1" result="shadowMatrixOuter1"></feColorMatrix>
            <feOffset dx="0" dy="1" in="SourceAlpha" result="shadowOffsetOuter2"></feOffset>
            <feGaussianBlur stdDeviation="1.5" in="shadowOffsetOuter2" result="shadowBlurOuter2"></feGaussianBlur>
            <feComposite in="shadowBlurOuter2" in2="SourceAlpha" operator="out" result="shadowBlurOuter2"></feComposite>
            <feColorMatrix values="0 0 0 0 0   0 0 0 0 0   0 0 0 0 0  0 0 0 0.239537806 0" type="matrix" in="shadowBlurOuter2" result="shadowMatrixOuter2"></feColorMatrix>
            <feMerge>
                <feMergeNode in="shadowMatrixOuter1"></feMergeNode>
                <feMergeNode in="shadowMatrixOuter2"></feMergeNode>
            </feMerge>
        </filter>
        <radialGradient cx="50%" cy="44.366766%" fx="50%" fy="44.366766%" r="56.2170461%" id="radialGradient-4">
            <stop stop-color="#FFFFFF" stop-opacity="0.5" offset="0%"></stop>
            <stop stop-color="#FFB200" stop-opacity="0.5" offset="100%"></stop>
        </radialGradient>
        <circle id="path-5" cx="45" cy="45" r="23.3333333"></circle>
        <radialGradient cx="50%" cy="50%" fx="50%" fy="50%" r="54.1060151%" id="radialGradient-6">
            <stop stop-color="#FFF78A" offset="0%"></stop>
            <stop stop-color="#FFF78A" stop-opacity="0.754141536" offset="43.6778875%"></stop>
            <stop stop-color="#FFF78A" stop-opacity="0" offset="100%"></stop>
        </radialGradient>
        <filter id="filter-7">
            <feColorMatrix in="SourceGraphic" type="matrix" values="0 0 0 0 1.000000 0 0 0 0 1.000000 0 0 0 0 1.000000 0 0 0 1.000000 0"></feColorMatrix>
        </filter>
        <filter x="-26.7%" y="-42.1%" width="153.3%" height="184.2%" filterUnits="objectBoundingBox" id="filter-8">
            <feOffset dx="0" dy="3" in="SourceAlpha" result="shadowOffsetOuter1"></feOffset>
            <feGaussianBlur stdDeviation="2.5" in="shadowOffsetOuter1" result="shadowBlurOuter1"></feGaussianBlur>
            <feColorMatrix values="0 0 0 0 0.502031856   0 0 0 0 0.546974899   0 0 0 0 0.585597826  0 0 0 0.18597028 0" type="matrix" in="shadowBlurOuter1" result="shadowMatrixOuter1"></feColorMatrix>
            <feMerge>
                <feMergeNode in="shadowMatrixOuter1"></feMergeNode>
                <feMergeNode in="SourceGraphic"></feMergeNode>
            </feMerge>
        </filter>
    </defs>
    <g id="Icon" stroke="none" stroke-width="1" fill="none" fill-rule="evenodd">
        <g id="Background">
            <use fill="black" fill-opacity="1" filter="url(#filter-3)" xlink:href="#path-2"></use>
            <use fill="url(#linearGradient-1)" fill-rule="evenodd" xlink:href="#path-2"></use>
        </g>
        <g id="Group" transform="translate(13.000000, 16.000000)" opacity="0.85000465">
            <g id="Sonne">
                <g id="Oval-2">
                    <use fill="#FFFAB2" xlink:href="#path-5"></use>
                    <use fill-opacity="0.11" fill="url(#radialGradient-4)" xlink:href="#path-5"></use>
                </g>
                <path d="M45,71.6666667 C46.3807119,71.6666667 47.5,73.2106219 47.5,74.7222222 C47.5,76.2338225 46.0694455,80.9012968 45.75,83.1555653 C45.1033975,87.7185218 45.2954719,90 45,90 C44.7053391,90 44.9105333,87.7310289 44.2666667,83.1930867 C43.9459252,80.9325157 42.5,76.2338225 42.5,74.7222222 C42.5,73.2106219 43.7005065,71.6666667 45,71.6666667 Z M31.6666667,68.0940108 C32.8623982,68.7843667 33.0597526,70.6811152 32.3039524,71.9901995 C31.8990595,72.6914946 30.685764,73.9718748 29.430588,75.2852191 L28.9281008,75.8110204 C28.0094416,76.7734661 27.1232223,77.7144802 26.5717364,78.4186888 C23.7302839,82.0470238 22.7558862,84.1188791 22.5,83.9711432 C22.2448162,83.8238127 23.5570051,81.9614232 25.2683714,77.7095167 C26.1208866,75.591434 27.2180252,70.7992838 27.9738254,69.4901995 C28.7296255,68.1811152 30.5412723,67.444264 31.6666667,68.0940108 Z M62.0261746,69.4901995 C62.7819748,70.7992838 63.8791134,75.591434 64.7316286,77.7095167 C66.4429949,81.9614232 67.7551838,83.8238127 67.5,83.9711432 C67.2441138,84.1188791 66.2697161,82.0470238 63.4282636,78.4186888 C62.8767777,77.7144802 61.9905584,76.7734661 61.0718992,75.8110204 L60.569412,75.2852191 C59.314236,73.9718748 58.1009405,72.6914946 57.6960476,71.9901995 C56.9402474,70.6811152 57.1376018,68.7843667 58.3333333,68.0940108 C59.4587277,67.444264 61.2703745,68.1811152 62.0261746,69.4901995 Z M38.0981588,70.758022 C39.4318241,71.1153766 40.1133683,72.8964159 39.7221374,74.3565097 C39.3309064,75.8166034 37.6650747,76.829814 36.7117875,78.8298075 C35.7868776,80.7702656 35.3640072,82.1036304 35.0786033,82.0271567 C34.7939827,81.9508928 35.0825028,80.6361514 35.2692863,78.4821354 C35.4623504,76.2556906 34.5012773,74.5225082 34.8925083,73.0624144 C35.2837392,71.6023207 36.8429444,70.4216884 38.0981588,70.758022 Z M55.1074917,73.0624144 C55.4987227,74.5225082 54.5376496,76.2556906 54.7307137,78.4821354 C54.9174972,80.6361514 55.2060173,81.9508928 54.9213967,82.0271567 C54.6359928,82.1036304 54.2131224,80.7702656 53.2882125,78.8298075 C52.3349253,76.829814 50.6690936,75.8166034 50.2778626,74.3565097 C49.8866317,72.8964159 50.5681759,71.1153766 51.9018412,70.758022 C53.1570556,70.4216884 54.7162608,71.6023207 55.1074917,73.0624144 Z M26.1438192,63.8561808 C27.1201299,64.8324916 26.8198449,66.715689 25.7509821,67.7845518 C24.6821192,68.8534147 22.7328613,68.8979648 20.9072937,70.1533664 C19.1360692,71.3713976 18.1031702,72.3146901 17.8942401,72.1057599 C17.6858833,71.8974032 18.5931198,70.9030639 19.831887,69.131023 C21.1123079,67.2993972 21.1465853,65.3178808 22.2154482,64.2490179 C23.284311,63.1801551 25.2249385,62.9373001 26.1438192,63.8561808 Z M67.7845518,64.2490179 C68.8534147,65.3178808 68.8876921,67.2993972 70.168113,69.131023 C71.4068802,70.9030639 72.3141167,71.8974032 72.1057599,72.1057599 C71.8968298,72.3146901 70.8639308,71.3713976 69.0927063,70.1533664 C67.2671387,68.8979648 65.3178808,68.8534147 64.2490179,67.7845518 C63.1801551,66.715689 62.8798701,64.8324916 63.8561808,63.8561808 C64.7750615,62.9373001 66.715689,63.1801551 67.7845518,64.2490179 Z M21.9059892,58.3333333 C22.5963452,59.5290649 21.8188848,61.2703745 20.5098005,62.0261746 C19.8085054,62.4310676 18.1175706,62.9332616 16.3738841,63.4430631 L15.6758168,63.6471768 C14.3990117,64.0213496 13.1610162,64.3931821 12.3313112,64.7273017 C10.086969,65.6310913 8.50279184,66.4206554 7.4828254,66.9297963 L7.2066762,67.067491 C6.46728301,67.4351924 6.09164461,67.6087516 6.02885683,67.5 C5.88152638,67.2448162 7.94911009,66.288034 11.55715,63.461458 C13.3544912,62.0534023 16.7007162,58.4518478 18.0098005,57.6960476 C19.3188848,56.9402474 21.2562425,57.2079389 21.9059892,58.3333333 Z M71.9901995,57.6960476 C73.2992838,58.4518478 76.6455088,62.0534023 78.44285,63.461458 C82.0508899,66.288034 84.1184736,67.2448162 83.9711432,67.5 C83.9083554,67.6087516 83.532717,67.4351924 82.7933238,67.067491 L82.5171746,66.9297963 C81.4972082,66.4206554 79.913031,65.6310913 77.6686888,64.7273017 C76.8389838,64.3931821 75.6009883,64.0213496 74.3241832,63.6471768 L73.6261159,63.4430631 C71.8824294,62.9332616 70.1914946,62.4310676 69.4901995,62.0261746 C68.1811152,61.2703745 67.4036548,59.5290649 68.0940108,58.3333333 C68.7437575,57.2079389 70.6811152,56.9402474 71.9901995,57.6960476 Z M19.241978,51.9018412 C19.5993325,53.2355065 18.3976793,54.7162608 16.9375856,55.1074917 C15.4774918,55.4987227 13.7671098,54.5626753 11.5584211,54.7371012 C9.41548007,54.9063348 8.04931708,55.2068007 7.97284333,54.9213967 C7.89657947,54.6367762 9.17943898,54.2292712 11.1382633,53.3140225 C13.1629532,52.3679984 14.1833966,50.6690936 15.6434903,50.2778626 C17.1035841,49.8866317 18.9056443,50.6466268 19.241978,51.9018412 Z M74.3565097,50.2778626 C75.8166034,50.6690936 76.8370468,52.3679984 78.8617367,53.3140225 C80.820561,54.2292712 82.1034205,54.6367762 82.0271567,54.9213967 C81.9506829,55.2068007 80.5845199,54.9063348 78.4415789,54.7371012 C76.2328902,54.5626753 74.5225082,55.4987227 73.0624144,55.1074917 C71.6023207,54.7162608 70.4006675,53.2355065 70.758022,51.9018412 C71.0943557,50.6466268 72.8964159,49.8866317 74.3565097,50.2778626 Z M15.2777778,42.5 C16.7893781,42.5 18.3333333,43.7005065 18.3333333,45 C18.3333333,46.3807119 16.7893781,47.5 15.2777778,47.5 C13.7661775,47.5 9.09870323,46.0694455 6.84443471,45.75 C2.28147824,45.1033975 0,45.2954719 0,45 C0,44.7053391 2.2689711,44.9105333 6.80691331,44.2666667 C9.0674843,43.9459252 13.7661775,42.5 15.2777778,42.5 Z M74.7222222,42.5 C76.2338225,42.5 80.9325157,43.9459252 83.1930867,44.2666667 C87.7310289,44.9105333 90,44.7053391 90,45 C90,45.2954719 87.7185218,45.1033975 83.1555653,45.75 C80.9012968,46.0694455 76.2338225,47.5 74.7222222,47.5 C73.2106219,47.5 71.6666667,46.3807119 71.6666667,45 C71.6666667,43.7005065 73.2106219,42.5 74.7222222,42.5 Z M78.4821354,35.2692863 C80.6361514,35.0825028 81.9508928,34.7939827 82.0271567,35.0786033 C82.1036304,35.3640072 80.7702656,35.7868776 78.8298075,36.7117875 C76.829814,37.6650747 75.8166034,39.3309064 74.3565097,39.7221374 C72.8964159,40.1133683 71.1153766,39.4318241 70.758022,38.0981588 C70.4216884,36.8429444 71.6023207,35.2837392 73.0624144,34.8925083 C74.5225082,34.5012773 76.2556906,35.4623504 78.4821354,35.2692863 Z M16.9375856,34.8925083 C18.3976793,35.2837392 19.5783116,36.8429444 19.241978,38.0981588 C18.8846234,39.4318241 17.1035841,40.1133683 15.6434903,39.7221374 C14.1833966,39.3309064 13.170186,37.6650747 11.1701925,36.7117875 C9.22973436,35.7868776 7.89636957,35.3640072 7.97284333,35.0786033 C8.04910718,34.7939827 9.36384856,35.0825028 11.5178646,35.2692863 C13.7443094,35.4623504 15.4774918,34.5012773 16.9375856,34.8925083 Z M83.9711432,22.5 C84.1188791,22.7558862 82.0470238,23.7302839 78.4186888,26.5717364 C77.7144802,27.1232223 76.7734661,28.0094416 75.8110204,28.9281008 L75.2852191,29.430588 C73.9718748,30.685764 72.6914946,31.8990595 71.9901995,32.3039524 C70.6811152,33.0597526 68.7843667,32.8623982 68.0940108,31.6666667 C67.444264,30.5412723 68.1811152,28.7296255 69.4901995,27.9738254 C70.7992838,27.2180252 75.591434,26.1208866 77.7095167,25.2683714 C81.9614232,23.5570051 83.8238127,22.2448162 83.9711432,22.5 Z M12.2904833,25.2683714 C14.408566,26.1208866 19.2007162,27.2180252 20.5098005,27.9738254 C21.8188848,28.7296255 22.555736,30.5412723 21.9059892,31.6666667 C21.2156333,32.8623982 19.3188848,33.0597526 18.0098005,32.3039524 C17.3085054,31.8990595 16.0281252,30.685764 14.7147809,29.430588 L14.1889796,28.9281008 C13.2265339,28.0094416 12.2855198,27.1232223 11.5813112,26.5717364 C7.95297621,23.7302839 5.88112087,22.7558862 6.02885683,22.5 C6.17618728,22.2448162 8.0385768,23.5570051 12.2904833,25.2683714 Z M72.1057599,17.8942401 C72.3146901,18.1031702 71.3713976,19.1360692 70.1533664,20.9072937 C68.8979648,22.7328613 68.8534147,24.6821192 67.7845518,25.7509821 C66.715689,26.8198449 64.8324916,27.1201299 63.8561808,26.1438192 C62.9373001,25.2249385 63.1801551,23.284311 64.2490179,22.2154482 C65.3178808,21.1465853 67.2993972,21.1123079 69.131023,19.831887 C70.9030639,18.5931198 71.8974032,17.6858833 72.1057599,17.8942401 Z M20.868977,19.831887 C22.7006028,21.1123079 24.6821192,21.1465853 25.7509821,22.2154482 C26.8198449,23.284311 27.0626999,25.2249385 26.1438192,26.1438192 C25.1675084,27.1201299 23.284311,26.8198449 22.2154482,25.7509821 C21.1465853,24.6821192 21.1020352,22.7328613 19.8466336,20.9072937 C18.6286024,19.1360692 17.6853099,18.1031702 17.8942401,17.8942401 C18.1025968,17.6858833 19.0969361,18.5931198 20.868977,19.831887 Z M67.5,6.02885683 C67.6087516,6.09164461 67.4351924,6.46728301 67.067491,7.2066762 L66.9297963,7.4828254 C66.4206554,8.50279184 65.6310913,10.086969 64.7273017,12.3313112 C64.3931821,13.1610162 64.0213496,14.3990117 63.6471768,15.6758168 L63.4430631,16.3738841 C62.9332616,18.1175706 62.4310676,19.8085054 62.0261746,20.5098005 C61.2703745,21.8188848 59.5290649,22.5963452 58.3333333,21.9059892 C57.2079389,21.2562425 56.9402474,19.3188848 57.6960476,18.0098005 C58.4518478,16.7007162 62.0534023,13.3544912 63.461458,11.55715 C66.288034,7.94911009 67.2448162,5.88152638 67.5,6.02885683 Z M26.538542,11.55715 C27.9465977,13.3544912 31.5481522,16.7007162 32.3039524,18.0098005 C33.0597526,19.3188848 32.7920611,21.2562425 31.6666667,21.9059892 C30.4709351,22.5963452 28.7296255,21.8188848 27.9738254,20.5098005 C27.5689324,19.8085054 27.0667384,18.1175706 26.5569369,16.3738841 L26.3528232,15.6758168 C25.9786504,14.3990117 25.6068179,13.1610162 25.2726983,12.3313112 C24.3689087,10.086969 23.5793446,8.50279184 23.0702037,7.4828254 L22.932509,7.2066762 C22.5648076,6.46728301 22.3912484,6.09164461 22.5,6.02885683 C22.7551838,5.88152638 23.711966,7.94911009 26.538542,11.55715 Z M54.9213967,7.97284333 C55.2068007,8.04931708 54.9063348,9.41548007 54.7371012,11.5584211 C54.5626753,13.7671098 55.4987227,15.4774918 55.1074917,16.9375856 C54.7162608,18.3976793 53.2355065,19.5993325 51.9018412,19.241978 C50.6466268,18.9056443 49.8866317,17.1035841 50.2778626,15.6434903 C50.6690936,14.1833966 52.3679984,13.1629532 53.3140225,11.1382633 C54.2292712,9.17943898 54.6367762,7.89657947 54.9213967,7.97284333 Z M36.6859775,11.1382633 C37.6320016,13.1629532 39.3309064,14.1833966 39.7221374,15.6434903 C40.1133683,17.1035841 39.3533732,18.9056443 38.0981588,19.241978 C36.7644935,19.5993325 35.2837392,18.3976793 34.8925083,16.9375856 C34.5012773,15.4774918 35.4373247,13.7671098 35.2628988,11.5584211 C35.0936652,9.41548007 34.7931993,8.04931708 35.0786033,7.97284333 C35.3632238,7.89657947 35.7707288,9.17943898 36.6859775,11.1382633 Z M45,0 C45.2954719,0 45.1033975,2.28147824 45.75,6.84443471 C46.0694455,9.09870323 47.5,13.7661775 47.5,15.2777778 C47.5,16.7893781 46.3807119,18.3333333 45,18.3333333 C43.7005065,18.3333333 42.5,16.7893781 42.5,15.2777778 C42.5,13.7661775 43.9459252,9.0674843 44.2666667,6.80691331 C44.9105333,2.2689711 44.7053391,0 45,0 Z" id="Strahlen" fill="url(#radialGradient-6)" fill-rule="nonzero"></path>
            </g>
        </g>
        <g id="Group" transform="translate(46.000000, 65.000000)" opacity="0.923223586">
            <g filter="url(#filter-7)" id="Wolke-Copy">
                <g filter="url(#filter-8)">
                    <path d="M11.8421053,38 L11.5411433,37.9962397 C5.14001089,37.8361178 0,32.5824832 0,26.125 C0,20.9365916 3.31822456,16.5253489 7.94271065,14.9088237 C8.40310589,10.5343201 12.0939848,7.125 16.5789474,7.125 C18.1387731,7.125 19.6025481,7.53738447 20.8677645,8.25936083 C23.5453612,3.33869643 28.7522845,0 34.7368421,0 C43.4571276,0 50.5263158,7.08882479 50.5263158,15.8333333 C50.5263158,15.8711275 50.5261837,15.9088908 50.5259201,15.9466227 C55.8822324,16.7134759 60,21.3328574 60,26.9166667 C60,33.0378226 55.0515683,38 48.9473684,38 L48.9473684,38 L11.8421053,38 Z" id="Cloud" fill="#D8D8D8"></path>
                </g>
            </g>
        </g>
    </g>
</svg>